<?xml version="1.0" encoding="UTF-8" standalone="no"?>
<svg
   xmlns:dc="http://purl.org/dc/elements/1.1/"
   xmlns:cc="http://creativecommons.org/ns#"
   xmlns:rdf="http://www.w3.org/1999/02/22-rdf-syntax-ns#"
   xmlns:svg="http://www.w3.org/2000/svg"
   xmlns="http://www.w3.org/2000/svg"
   viewBox="0 0 231.036 125.27653"
   height="125.27653"
   width="231.036"
   xml:space="preserve"
   id="svg2"
   version="1.1"><metadata
     id="metadata8"><rdf:RDF><cc:Work
         rdf:about=""><dc:format>image/svg+xml</dc:format><dc:type
           rdf:resource="http://purl.org/dc/dcmitype/StillImage" /></cc:Work></rdf:RDF></metadata><defs
     id="defs6"><clipPath
       id="clipPath18"
       clipPathUnits="userSpaceOnUse"><path
         id="path16"
         d="M 0,93.957 H 173.277 V 0 H 0 Z" /></clipPath></defs><g
     transform="matrix(1.3333333,0,0,-1.3333333,0,125.27653)"
     id="g10"><g
       id="g12"><g
         clip-path="url(#clipPath18)"
         id="g14"><g
           transform="translate(46.657,21.163)"
           id="g20"><path
             id="path22"
             style="fill:none;stroke:#7aacbe;stroke-width:0.56699997;stroke-linecap:butt;stroke-linejoin:miter;stroke-miterlimit:10;stroke-dasharray:none;stroke-opacity:1"
             d="m 0,0 c -3.25,0 -5.753,0.631 -7.51,1.89 -1.758,1.258 -2.636,2.949 -2.636,5.072 0,1.855 0.647,3.282 1.94,4.277 1.293,0.994 2.801,1.492 4.526,1.492 1.723,0 3.248,-0.382 4.575,-1.144 1.326,-0.763 2.552,-2.073 3.68,-3.929 L 6.366,4.575 C 6.697,4.11 7.112,3.879 7.609,3.879 c 0.497,0 0.846,0.298 1.044,0.895 0.398,1.326 0.68,3.265 0.846,5.819 0.165,2.552 0.249,5.652 0.249,9.3 0,4.177 -0.1,9.548 -0.299,16.113 -0.199,6.565 -0.398,14.654 -0.597,24.269 0,2.851 -1.061,4.641 -3.183,5.371 l -2.287,0.796 v 0.995 H 29.441 V 66.442 L 27.253,65.646 C 26.06,65.182 25.247,64.568 24.816,63.807 24.384,63.043 24.17,61.966 24.17,60.574 V 40.88 C 24.17,34.381 23.872,29.01 23.275,24.767 22.678,20.522 21.716,16.842 20.39,13.726 18.732,9.282 16.029,5.884 12.284,3.53 8.537,1.178 4.441,0 0,0 Z" /></g><g
           transform="translate(79.8767,22.9531)"
           id="g24"><path
             id="path26"
             style="fill:none;stroke:#7aacbe;stroke-width:0.56699997;stroke-linecap:butt;stroke-linejoin:miter;stroke-miterlimit:10;stroke-dasharray:none;stroke-opacity:1"
             d="M 0,0 V 0.995 L 1.99,1.79 c 1.325,0.464 2.203,1.095 2.635,1.891 0.431,0.795 0.647,1.822 0.647,3.083 v 52.02 c 0,1.325 -0.216,2.387 -0.647,3.183 -0.432,0.795 -1.31,1.425 -2.635,1.889 L 0,64.652 v 0.995 h 25.265 v -0.995 l -1.692,-0.696 c -1.26,-0.465 -2.122,-1.079 -2.586,-1.84 -0.465,-0.763 -0.696,-1.807 -0.696,-3.133 v -24.17 h 23.772 v 24.17 c 0,1.326 -0.215,2.37 -0.646,3.133 -0.432,0.761 -1.311,1.375 -2.636,1.84 l -1.79,0.696 v 0.995 H 64.354 V 64.652 L 62.365,63.856 C 61.104,63.392 60.242,62.762 59.779,61.967 59.314,61.171 59.083,60.109 59.083,58.784 V 6.764 c 0,-1.261 0.231,-2.288 0.696,-3.083 0.463,-0.796 1.325,-1.427 2.586,-1.891 L 64.354,0.995 V 0 H 38.991 v 0.995 l 1.79,0.597 c 1.325,0.529 2.204,1.176 2.636,1.939 0.431,0.762 0.646,1.806 0.646,3.133 V 32.823 H 20.291 V 6.664 c 0,-2.454 1.095,-4.144 3.282,-5.072 L 25.265,0.995 V 0 Z" /></g><g
           transform="translate(69.1853,48.873)"
           id="g28"><path
             id="path30"
             style="fill:#1d1d1b;fill-opacity:1;fill-rule:nonzero;stroke:none"
             d="M 0,0 C 0.022,0.057 0.06,0.096 0.115,0.118 0.202,0.162 0.271,0.225 0.319,0.303 0.369,0.381 0.36,0.493 0.295,0.639 0.175,0.616 0.038,0.577 -0.114,0.521 -0.922,0.297 -1.725,0.09 -2.521,-0.101 c -2.183,-0.593 -4.355,-1.198 -6.516,-1.814 -6.002,-1.725 -11.956,-3.635 -17.86,-5.729 -0.513,-0.168 -0.941,-0.4 -1.285,-0.697 -0.344,-0.297 -0.592,-0.72 -0.745,-1.268 -0.088,-0.269 -0.191,-0.537 -0.311,-0.807 -0.077,-0.123 -0.137,-0.246 -0.18,-0.369 -0.153,-0.37 -0.393,-0.885 -0.721,-1.546 -0.338,-0.672 -0.676,-1.377 -1.015,-2.116 -0.338,-0.74 -0.573,-1.372 -0.703,-1.899 -0.132,-0.526 -0.077,-0.829 0.163,-0.907 0.339,0.078 0.65,0.213 0.933,0.403 0.142,0.079 0.289,0.151 0.442,0.218 6.505,2.935 12.868,6.189 19.089,9.761 2.466,1.456 4.911,2.934 7.334,4.435 1.059,0.672 2.117,1.328 3.176,1.966 0.022,0.023 0.043,0.033 0.065,0.033 C -0.415,-0.313 -0.196,-0.168 0,0 m -33.314,-17.992 h 0.032 c 0.175,0.078 0.338,0.179 0.491,0.302 0.153,0.124 0.257,0.292 0.311,0.503 h -0.114 c -0.481,-0.021 -0.786,0.042 -0.917,0.194 -0.131,0.151 -0.136,0.434 -0.016,0.848 0.065,0.269 0.158,0.539 0.278,0.807 0.033,0.078 0.06,0.14 0.082,0.185 0.185,0.493 0.365,0.974 0.54,1.445 0.426,1.063 0.835,2.139 1.228,3.226 0.022,0.044 0.054,0.105 0.098,0.184 0.076,0.168 0.125,0.333 0.147,0.495 0.022,0.162 -0.016,0.328 -0.114,0.496 h -0.066 c -0.12,-0.022 -0.229,-0.061 -0.327,-0.118 -0.066,-0.022 -0.126,-0.045 -0.18,-0.066 -3.045,-1.132 -6.057,-2.327 -9.037,-3.587 -2.979,-1.261 -5.921,-2.63 -8.824,-4.109 -2.357,-1.153 -4.638,-2.446 -6.843,-3.879 -1.277,-0.785 -2.439,-1.72 -3.487,-2.806 -0.578,-0.538 -1.015,-1.188 -1.309,-1.949 -0.088,-0.246 -0.08,-0.482 0.024,-0.706 0.104,-0.224 0.292,-0.375 0.565,-0.453 0.305,-0.09 0.627,-0.135 0.966,-0.135 0.36,0 0.72,0.034 1.08,0.101 2.325,0.426 4.627,1.019 6.909,1.781 4.954,1.624 9.833,3.472 14.635,5.544 1.288,0.538 2.571,1.103 3.848,1.697 M 48.409,8.988 C 47.591,8.91 46.762,8.837 45.921,8.77 45.157,8.691 44.388,8.619 43.612,8.552 38.047,7.958 32.502,7.19 26.979,6.25 20.639,5.22 14.308,3.987 7.989,2.554 6.887,2.308 5.866,1.854 4.928,1.193 c -7.531,-5.152 -15.302,-9.786 -23.312,-13.902 -8.012,-4.116 -16.229,-7.798 -24.655,-11.046 -3.678,-1.478 -7.421,-2.722 -11.231,-3.729 -1.757,-0.471 -3.546,-0.768 -5.369,-0.891 -0.24,-0.022 -0.48,-0.033 -0.72,-0.033 -0.819,-0.034 -1.6,0.1 -2.341,0.403 -1.157,0.515 -1.507,1.377 -1.048,2.587 0.36,0.862 0.889,1.624 1.588,2.285 1.364,1.377 2.875,2.559 4.534,3.544 4.083,2.465 8.306,4.638 12.672,6.519 4.322,1.915 8.703,3.674 13.145,5.275 0.121,0.023 0.23,0.062 0.328,0.118 0.142,0.067 0.3,0.128 0.475,0.185 0.644,0.19 1.074,0.633 1.293,1.327 0.382,1.03 0.78,2.055 1.195,3.074 0.065,0.168 0.137,0.353 0.213,0.555 0.906,2.307 1.828,4.631 2.766,6.972 1.758,4.413 3.509,8.836 5.256,13.272 1.157,2.789 2.084,5.662 2.782,8.618 0.044,0.269 0.126,0.538 0.246,0.807 0.218,0.325 0.508,0.436 0.868,0.336 0.141,0.044 0.3,0.044 0.475,0 0.141,-0.023 0.259,-0.084 0.351,-0.185 0.093,-0.101 0.14,-0.224 0.14,-0.37 0.032,-0.448 0.01,-0.879 -0.066,-1.293 -0.524,-2.61 -1.304,-5.147 -2.341,-7.611 -1.779,-4.435 -3.568,-8.882 -5.369,-13.339 -0.72,-1.826 -1.452,-3.651 -2.194,-5.477 -0.142,-0.347 -0.284,-0.695 -0.426,-1.042 -0.436,-1.108 -0.884,-2.228 -1.342,-3.36 -0.022,-0.045 -0.033,-0.078 -0.033,-0.101 -0.077,-0.123 -0.12,-0.241 -0.131,-0.352 -0.011,-0.112 0.044,-0.219 0.164,-0.319 0.022,-0.023 0.06,-0.045 0.115,-0.068 0.043,0.023 0.103,0.045 0.18,0.068 h 0.065 c 1.135,0.37 2.254,0.739 3.356,1.108 1.964,0.661 3.918,1.316 5.861,1.966 6.919,2.184 13.899,4.093 20.938,5.729 0.84,0.19 1.604,0.531 2.292,1.025 1.998,1.456 3.962,2.948 5.894,4.477 1.931,1.529 3.787,3.144 5.566,4.847 1.943,1.792 3.705,3.774 5.288,5.947 0.939,1.254 1.648,2.643 2.128,4.167 0.655,2.34 0.235,4.401 -1.26,6.182 -0.546,0.66 -1.162,1.226 -1.85,1.697 -0.687,0.47 -1.414,0.879 -2.178,1.226 -2.619,1.153 -5.348,1.893 -8.185,2.218 -2.467,0.313 -4.939,0.47 -7.416,0.47 -2.26,0 -4.513,-0.095 -6.761,-0.286 -5.796,-0.47 -11.526,-1.372 -17.19,-2.704 -3.864,-0.863 -7.651,-1.935 -11.361,-3.217 -3.711,-1.283 -7.318,-2.898 -10.822,-4.848 -1.298,-0.683 -2.554,-1.43 -3.765,-2.242 -1.212,-0.812 -2.368,-1.7 -3.47,-2.663 -0.841,-0.796 -1.621,-1.636 -2.342,-2.52 -0.534,-0.594 -0.922,-1.283 -1.162,-2.067 -0.382,-1.209 -0.126,-2.245 0.769,-3.107 0.546,-0.538 1.179,-0.942 1.9,-1.21 1.222,-0.527 2.493,-0.835 3.814,-0.924 0.698,-0.057 1.408,-0.096 2.128,-0.118 0.96,-0.045 1.921,-0.095 2.881,-0.151 0.775,-0.044 1.534,-0.118 2.276,-0.218 0.098,-0.023 0.182,-0.071 0.254,-0.143 0.07,-0.073 0.128,-0.16 0.172,-0.261 0.022,-0.201 -0.028,-0.333 -0.148,-0.394 -0.12,-0.062 -0.24,-0.082 -0.36,-0.059 h -0.213 -0.213 c -0.698,0.033 -1.38,0.05 -2.046,0.05 h -0.655 -1.048 -0.032 c -0.983,0 -1.954,0.023 -2.914,0.067 -0.961,0.045 -1.921,0.168 -2.882,0.37 -1.08,0.247 -2.128,0.616 -3.143,1.109 -0.546,0.269 -1.058,0.599 -1.539,0.991 -1.44,1.232 -1.801,2.772 -1.08,4.62 0.502,1.209 1.222,2.274 2.161,3.192 1.222,1.3 2.565,2.47 4.027,3.511 3.983,2.8 8.224,5.063 12.72,6.788 3.624,1.433 7.302,2.637 11.034,3.612 3.733,0.974 7.509,1.781 11.329,2.419 5.882,1.064 11.803,1.607 17.762,1.63 H 4.29 c 2.258,0 4.509,-0.118 6.752,-0.353 2.244,-0.236 4.456,-0.672 6.64,-1.311 1.8,-0.515 3.508,-1.254 5.124,-2.217 0.84,-0.516 1.592,-1.132 2.258,-1.848 2.216,-2.364 2.746,-5.124 1.588,-8.283 -0.523,-1.4 -1.244,-2.705 -2.161,-3.914 -1.68,-2.275 -3.552,-4.358 -5.615,-6.25 C 16.355,9.789 13.724,7.583 10.985,5.511 10.909,5.443 10.811,5.382 10.69,5.326 10.548,5.226 10.406,5.113 10.265,4.99 10.123,4.866 10.024,4.698 9.97,4.486 10.068,4.407 10.156,4.368 10.232,4.368 l 0.36,0.068 c 0.12,0.055 0.24,0.094 0.36,0.117 7.084,1.478 14.189,2.699 21.316,3.663 3.438,0.436 6.859,0.84 10.264,1.209 1.179,0.123 2.347,0.247 3.503,0.37 0.404,0.056 0.824,0.084 1.261,0.084 C 47.7,9.901 48.104,9.862 48.508,9.761 48.563,9.738 48.614,9.696 48.663,9.635 48.712,9.573 48.737,9.521 48.737,9.476 48.759,9.318 48.734,9.204 48.663,9.131 48.592,9.059 48.508,9.011 48.409,8.988" /></g><g
           transform="translate(84.0676,44.3378)"
           id="g32"><path
             id="path34"
             style="fill:#1d1d1b;fill-opacity:1;fill-rule:nonzero;stroke:none"
             d="m 0,0 c -0.065,-0.079 -0.112,-0.166 -0.14,-0.261 -0.027,-0.095 0.009,-0.182 0.107,-0.26 0.383,-0.224 0.797,-0.305 1.245,-0.244 0.447,0.062 0.826,0.236 1.138,0.521 0.311,0.286 0.444,0.636 0.4,1.05 C 2.718,0.951 2.641,1.044 2.522,1.083 2.402,1.122 2.282,1.131 2.162,1.108 1.354,0.963 0.633,0.593 0,0 M 6.974,-2.705 C 6.341,-3.344 5.605,-3.89 4.764,-4.344 3.924,-4.797 3.22,-5.094 2.653,-5.233 2.084,-5.374 1.5,-5.455 0.9,-5.478 c -0.961,-0.044 -1.844,0.09 -2.652,0.404 -1.32,0.549 -1.778,1.595 -1.375,3.141 0.383,1.333 1.157,2.374 2.325,3.125 1.167,0.75 2.373,1.115 3.618,1.092 H 2.849 C 3.166,2.307 3.465,2.284 3.75,2.217 4.23,2.038 4.536,1.747 4.667,1.344 4.797,0.94 4.709,0.492 4.404,0 3.706,-1.087 2.756,-1.691 1.556,-1.814 c -0.797,-0.08 -1.567,-0.04 -2.309,0.117 -0.143,0.022 -0.268,-0.017 -0.377,-0.117 -0.109,-0.102 -0.175,-0.225 -0.196,-0.371 -0.219,-0.962 0.071,-1.579 0.868,-1.847 0.981,-0.348 2.002,-0.348 3.061,0 1.223,0.391 2.385,1.131 3.487,2.218 1.103,1.085 1.739,1.592 1.908,1.519 0.169,-0.072 0.22,-0.282 0.155,-0.63 C 8,-1.474 7.607,-2.066 6.974,-2.705" /></g><g
           transform="translate(97.0017,37.2812)"
           id="g36"><path
             id="path38"
             style="fill:#1d1d1b;fill-opacity:1;fill-rule:nonzero;stroke:none"
             d="M 0,0 C 0.764,0.269 1.086,0.795 0.966,1.579 0.966,1.636 0.955,1.697 0.933,1.764 0.89,2.189 0.802,2.518 0.671,2.747 0.54,2.977 0.245,2.968 -0.213,2.722 -1.348,2.061 -2.396,1.288 -3.356,0.403 -3.422,0.325 -3.481,0.252 -3.536,0.185 L -3.569,0.135 C -3.635,0.045 -3.646,-0.056 -3.602,-0.168 -3.558,-0.28 -3.46,-0.336 -3.307,-0.336 -2.183,-0.516 -1.08,-0.403 0,0 M 7.089,6.418 C 5.364,5.757 4.12,5.219 3.356,4.805 2.8,4.524 2.48,4.293 2.398,4.107 2.316,3.923 2.379,3.584 2.587,3.092 2.587,3.068 2.603,3.035 2.636,2.99 2.876,2.396 3.018,1.781 3.062,1.143 3.138,-0.146 2.071,-1.047 -0.14,-1.562 c -2.21,-0.515 -3.688,-0.533 -4.436,-0.05 -0.747,0.481 -0.977,1.091 -0.688,1.831 0.29,0.739 1.04,1.489 2.251,2.251 1.212,0.761 2.023,1.31 2.432,1.646 0.409,0.336 0.532,0.711 0.368,1.126 -0.055,0.145 -0.114,0.291 -0.18,0.437 -0.142,0.346 -0.29,0.705 -0.442,1.075 -0.283,0.672 -0.406,1.333 -0.368,1.982 0.038,0.65 0.272,1.196 0.704,1.638 0.431,0.442 1.099,0.681 2.005,0.714 C 2.019,11.11 2.478,11.04 2.881,10.878 3.285,10.716 3.606,10.416 3.847,9.979 4.044,9.677 3.983,9.402 3.667,9.156 3.46,8.988 3.235,8.966 2.996,9.089 2.843,9.156 2.695,9.251 2.554,9.375 v 0.05 C 2.488,9.47 2.428,9.515 2.374,9.56 2.309,9.66 2.237,9.738 2.161,9.795 1.877,10.007 1.591,10.071 1.302,9.987 1.012,9.903 0.797,9.677 0.655,9.308 0.557,9.016 0.508,8.72 0.508,8.417 0.529,8.047 0.611,7.688 0.753,7.342 0.852,7.129 0.938,6.933 1.015,6.754 1.2,6.261 1.354,5.922 1.474,5.737 1.594,5.553 1.738,5.474 1.907,5.502 2.076,5.53 3.623,6.099 6.548,7.207 7.181,7.42 7.361,7.157 7.089,6.418" /></g><g
           transform="translate(109.1824,37.2812)"
           id="g40"><path
             id="path42"
             style="fill:#1d1d1b;fill-opacity:1;fill-rule:nonzero;stroke:none"
             d="M 0,0 C 0.764,0.269 1.086,0.795 0.966,1.579 0.966,1.636 0.955,1.697 0.933,1.764 0.89,2.189 0.802,2.518 0.671,2.747 0.54,2.977 0.245,2.968 -0.213,2.722 -1.348,2.061 -2.396,1.288 -3.356,0.403 -3.422,0.325 -3.481,0.252 -3.536,0.185 L -3.569,0.135 C -3.635,0.045 -3.646,-0.056 -3.602,-0.168 -3.558,-0.28 -3.46,-0.336 -3.307,-0.336 -2.183,-0.516 -1.08,-0.403 0,0 M 7.089,6.418 C 5.364,5.757 4.12,5.219 3.356,4.805 2.8,4.524 2.48,4.293 2.398,4.107 2.316,3.923 2.379,3.584 2.587,3.092 2.587,3.068 2.603,3.035 2.636,2.99 2.876,2.396 3.018,1.781 3.062,1.143 3.138,-0.146 2.071,-1.047 -0.14,-1.562 c -2.21,-0.515 -3.688,-0.533 -4.436,-0.05 -0.747,0.481 -0.977,1.091 -0.688,1.831 0.29,0.739 1.04,1.489 2.251,2.251 1.212,0.761 2.023,1.31 2.432,1.646 0.409,0.336 0.532,0.711 0.368,1.126 -0.055,0.145 -0.114,0.291 -0.18,0.437 -0.142,0.346 -0.29,0.705 -0.442,1.075 -0.283,0.672 -0.406,1.333 -0.368,1.982 0.038,0.65 0.272,1.196 0.704,1.638 0.431,0.442 1.099,0.681 2.005,0.714 C 2.019,11.11 2.478,11.04 2.881,10.878 3.285,10.716 3.606,10.416 3.847,9.979 4.044,9.677 3.983,9.402 3.667,9.156 3.46,8.988 3.235,8.966 2.996,9.089 2.843,9.156 2.695,9.251 2.554,9.375 v 0.05 C 2.488,9.47 2.428,9.515 2.374,9.56 2.309,9.66 2.237,9.738 2.161,9.795 1.877,10.007 1.591,10.071 1.302,9.987 1.012,9.903 0.797,9.677 0.655,9.308 0.557,9.016 0.508,8.72 0.508,8.417 0.529,8.047 0.611,7.688 0.753,7.342 0.852,7.129 0.938,6.933 1.015,6.754 1.2,6.261 1.354,5.922 1.474,5.737 1.594,5.553 1.738,5.474 1.907,5.502 2.076,5.53 3.623,6.099 6.548,7.207 7.181,7.42 7.361,7.157 7.089,6.418" /></g><g
           transform="translate(122.8865,44.3378)"
           id="g44"><path
             id="path46"
             style="fill:#1d1d1b;fill-opacity:1;fill-rule:nonzero;stroke:none"
             d="m 0,0 c -0.065,-0.079 -0.112,-0.166 -0.14,-0.261 -0.027,-0.095 0.009,-0.182 0.107,-0.26 0.383,-0.224 0.797,-0.305 1.245,-0.244 0.447,0.062 0.826,0.236 1.138,0.521 0.31,0.286 0.444,0.636 0.4,1.05 C 2.718,0.951 2.641,1.044 2.521,1.083 2.401,1.122 2.281,1.131 2.161,1.108 1.354,0.963 0.633,0.593 0,0 M 6.974,-2.705 C 6.341,-3.344 5.604,-3.89 4.764,-4.344 3.924,-4.797 3.22,-5.094 2.652,-5.233 2.084,-5.374 1.5,-5.455 0.9,-5.478 c -0.961,-0.044 -1.844,0.09 -2.652,0.404 -1.32,0.549 -1.778,1.595 -1.375,3.141 0.382,1.333 1.157,2.374 2.325,3.125 1.167,0.75 2.373,1.115 3.617,1.092 h 0.034 c 0.316,0.023 0.616,0 0.9,-0.067 C 4.229,2.038 4.535,1.747 4.666,1.344 4.797,0.94 4.709,0.492 4.403,0 3.705,-1.087 2.756,-1.691 1.556,-1.814 c -0.797,-0.08 -1.567,-0.04 -2.309,0.117 -0.143,0.022 -0.268,-0.017 -0.377,-0.117 -0.109,-0.102 -0.175,-0.225 -0.196,-0.371 -0.219,-0.962 0.071,-1.579 0.868,-1.847 0.981,-0.348 2.002,-0.348 3.061,0 1.222,0.391 2.384,1.131 3.487,2.218 1.102,1.085 1.738,1.592 1.907,1.519 0.169,-0.072 0.221,-0.282 0.155,-0.63 C 8,-1.474 7.606,-2.066 6.974,-2.705" /></g><g
           transform="translate(142.8435,45.497)"
           id="g48"><path
             id="path50"
             style="fill:#1d1d1b;fill-opacity:1;fill-rule:nonzero;stroke:none"
             d="m 0,0 c -0.099,-0.773 -0.453,-1.277 -1.064,-1.513 -0.612,-0.235 -0.811,0.074 -0.598,0.924 0.213,0.852 -0.161,1.068 -1.121,0.648 -0.961,-0.42 -1.752,-0.95 -2.374,-1.588 -0.961,-1.008 -1.812,-2.095 -2.554,-3.259 -0.076,-0.102 -0.137,-0.186 -0.181,-0.252 -0.217,-0.325 -0.435,-0.634 -0.654,-0.925 -0.142,-0.201 -0.308,-0.327 -0.499,-0.378 -0.191,-0.05 -0.385,-0.058 -0.581,-0.024 -0.186,0.021 -0.328,0.095 -0.426,0.218 -0.098,0.123 -0.109,0.268 -0.033,0.436 0.12,0.303 0.262,0.61 0.426,0.925 0.982,1.87 1.98,3.746 2.996,5.628 0.021,0.022 0.032,0.044 0.032,0.067 0.142,0.291 0.312,0.56 0.508,0.806 0.218,0.246 0.469,0.348 0.753,0.303 0.284,-0.045 0.474,-0.219 0.573,-0.521 0.12,-0.392 0.224,-0.613 0.311,-0.664 0.088,-0.051 0.284,-0.014 0.59,0.109 0.654,0.247 1.292,0.42 1.915,0.521 0.622,0.101 1.132,0.076 1.531,-0.075 C -0.053,1.234 0.098,0.772 0,0" /></g><g
           transform="translate(158.3308,43.2959)"
           id="g52"><path
             id="path54"
             style="fill:#1d1d1b;fill-opacity:1;fill-rule:nonzero;stroke:none"
             d="m 0,0 c -1.462,-1.77 -2.895,-3.074 -4.297,-3.914 -1.402,-0.841 -2.903,-1.117 -4.502,-0.832 -1.598,0.285 -2.257,1.386 -1.972,3.301 0.196,0.964 0.463,1.904 0.801,2.823 0.841,2.139 1.692,4.267 2.554,6.384 0.284,0.761 0.584,1.528 0.9,2.301 0.077,0.168 0.148,0.336 0.213,0.504 0.12,0.28 0.241,0.566 0.361,0.857 0.174,0.493 -0.017,0.75 -0.574,0.772 h -0.932 -0.475 c -0.164,-0.022 -0.333,-0.045 -0.508,-0.066 -0.284,-0.023 -0.564,-0.034 -0.842,-0.034 -0.279,0 -0.539,0.073 -0.779,0.218 -0.065,0.023 -0.117,0.065 -0.155,0.126 -0.038,0.062 -0.058,0.132 -0.058,0.21 0.023,0.045 0.058,0.098 0.107,0.16 0.05,0.061 0.112,0.103 0.188,0.126 0.241,0.101 0.491,0.173 0.753,0.218 0.677,0.034 1.348,0.062 2.014,0.084 h 0.687 c 0.437,0 0.762,0.017 0.975,0.051 0.213,0.033 0.385,0.15 0.516,0.353 0.13,0.201 0.283,0.509 0.458,0.923 0.098,0.224 0.218,0.471 0.36,0.74 0.36,0.784 0.721,1.585 1.08,2.402 0.164,0.37 0.333,0.728 0.508,1.075 0.141,0.347 0.365,0.616 0.671,0.807 0.295,0.145 0.552,0.134 0.769,-0.034 0.066,-0.045 0.117,-0.118 0.157,-0.218 0.038,-0.101 0.056,-0.191 0.056,-0.269 0,-0.437 -0.109,-0.868 -0.327,-1.294 -0.044,-0.089 -0.093,-0.196 -0.147,-0.319 -0.142,-0.403 -0.295,-0.812 -0.458,-1.226 -0.318,-0.762 -0.618,-1.541 -0.901,-2.335 -0.077,-0.146 -0.079,-0.275 -0.009,-0.387 0.072,-0.111 0.178,-0.168 0.32,-0.168 0.775,-0.023 1.533,-0.033 2.275,-0.033 h 1.147 c 1.2,-0.023 1.68,-0.197 1.44,-0.521 C 2.21,12.594 2.033,12.485 1.842,12.457 1.651,12.429 1.457,12.432 1.261,12.466 H 0.9 c -1.221,-0.079 -2.433,-0.129 -3.633,-0.152 -0.557,0 -0.928,-0.257 -1.114,-0.772 C -4.043,11.049 -4.234,10.556 -4.42,10.063 -4.692,9.413 -4.949,8.78 -5.189,8.165 -5.43,7.582 -5.67,6.994 -5.909,6.4 -6.531,4.899 -7.132,3.394 -7.71,1.882 -8.07,0.896 -8.354,-0.112 -8.562,-1.143 c -0.458,-1.87 0.246,-2.586 2.112,-2.15 1.834,0.448 3.755,1.803 5.763,4.065 C 0.186,1.344 0.415,1.086 0,0" /></g><g
           transform="translate(163.1609,37.2812)"
           id="g56"><path
             id="path58"
             style="fill:#1d1d1b;fill-opacity:1;fill-rule:nonzero;stroke:none"
             d="M 0,0 C 0.764,0.269 1.086,0.795 0.966,1.579 0.966,1.636 0.955,1.697 0.933,1.764 0.89,2.189 0.802,2.518 0.671,2.747 0.54,2.977 0.245,2.968 -0.213,2.722 -1.348,2.061 -2.396,1.288 -3.356,0.403 -3.422,0.325 -3.481,0.252 -3.536,0.185 L -3.569,0.135 C -3.635,0.045 -3.646,-0.056 -3.602,-0.168 -3.558,-0.28 -3.46,-0.336 -3.307,-0.336 -2.183,-0.516 -1.08,-0.403 0,0 M 7.089,6.418 C 5.364,5.757 4.12,5.219 3.356,4.805 2.8,4.524 2.48,4.293 2.398,4.107 2.316,3.923 2.379,3.584 2.587,3.092 2.587,3.068 2.603,3.035 2.636,2.99 2.876,2.396 3.018,1.781 3.062,1.143 3.138,-0.146 2.071,-1.047 -0.14,-1.562 c -2.21,-0.515 -3.688,-0.533 -4.436,-0.05 -0.747,0.481 -0.977,1.091 -0.688,1.831 0.29,0.739 1.04,1.489 2.251,2.251 1.212,0.761 2.023,1.31 2.432,1.646 0.409,0.336 0.532,0.711 0.368,1.126 -0.055,0.145 -0.114,0.291 -0.18,0.437 -0.142,0.346 -0.29,0.705 -0.442,1.075 -0.283,0.672 -0.406,1.333 -0.368,1.982 0.038,0.65 0.272,1.196 0.704,1.638 0.431,0.442 1.099,0.681 2.005,0.714 C 2.019,11.11 2.478,11.04 2.881,10.878 3.285,10.716 3.606,10.416 3.847,9.979 4.044,9.677 3.983,9.402 3.667,9.156 3.46,8.988 3.235,8.966 2.996,9.089 2.843,9.156 2.695,9.251 2.554,9.375 v 0.05 C 2.488,9.47 2.428,9.515 2.374,9.56 2.309,9.66 2.237,9.738 2.161,9.795 1.877,10.007 1.591,10.071 1.302,9.987 1.012,9.903 0.797,9.677 0.655,9.308 0.557,9.016 0.508,8.72 0.508,8.417 0.529,8.047 0.611,7.688 0.753,7.342 0.852,7.129 0.938,6.933 1.015,6.754 1.2,6.261 1.354,5.922 1.474,5.737 1.594,5.553 1.738,5.474 1.907,5.502 2.076,5.53 3.623,6.099 6.548,7.207 7.181,7.42 7.361,7.157 7.089,6.418" /></g><g
           transform="translate(23.2983,9.9745)"
           id="g60"><path
             id="path62"
             style="fill:#b49f7a;fill-opacity:1;fill-rule:nonzero;stroke:none"
             d="M 0,0 C 1.086,0 1.699,0.52 1.699,1.332 1.699,2.143 1.086,2.671 0,2.671 H -3.732 V 0 Z m -4.248,3.124 h 4.3 C 1.428,3.124 2.216,2.42 2.216,1.332 2.208,0.252 1.419,-0.451 0.052,-0.451 h -3.784 v -2.312 h -0.516 z" /></g><g
           transform="translate(23.2983,9.9745)"
           id="g64"><path
             id="path66"
             style="fill:none;stroke:#b49f7a;stroke-width:0.56699997;stroke-linecap:butt;stroke-linejoin:miter;stroke-miterlimit:10;stroke-dasharray:none;stroke-opacity:1"
             d="M 0,0 C 1.086,0 1.699,0.52 1.699,1.332 1.699,2.143 1.086,2.671 0,2.671 H -3.732 V 0 Z m -4.248,3.124 h 4.3 C 1.428,3.124 2.216,2.42 2.216,1.332 2.208,0.252 1.419,-0.451 0.052,-0.451 h -3.784 v -2.312 h -0.516 z" /></g><g
           transform="translate(32.8154,9.1379)"
           id="g68"><path
             id="path70"
             style="fill:#b49f7a;fill-opacity:1;fill-rule:nonzero;stroke:none"
             d="M 0,0 -1.962,3.533 H -1.98 L -3.942,0 Z m -2.269,3.96 h 0.605 L 1.629,-1.926 H 1.086 l -0.85,1.481 H -4.187 L -5.028,-1.926 H -5.58 Z" /></g><g
           transform="translate(32.8154,9.1379)"
           id="g72"><path
             id="path74"
             style="fill:none;stroke:#b49f7a;stroke-width:0.56699997;stroke-linecap:butt;stroke-linejoin:miter;stroke-miterlimit:10;stroke-dasharray:none;stroke-opacity:1"
             d="M 0,0 -1.962,3.533 H -1.98 L -3.942,0 Z m -2.269,3.96 h 0.605 L 1.629,-1.926 H 1.086 l -0.85,1.481 H -4.187 L -5.028,-1.926 H -5.58 Z" /></g><g
           transform="translate(41.6754,10.1759)"
           id="g76"><path
             id="path78"
             style="fill:#b49f7a;fill-opacity:1;fill-rule:nonzero;stroke:none"
             d="M 0,0 C 0.989,0 1.682,0.502 1.682,1.23 1.682,1.968 0.989,2.47 0,2.47 H -3.855 V 0 Z M 0.885,-2.311 0.49,-1.349 c -0.21,0.52 -0.534,0.897 -1.112,0.897 h -3.224 v -2.512 h -0.516 v 5.886 h 4.397 c 1.288,0 2.172,-0.669 2.172,-1.667 0,-0.904 -0.762,-1.54 -1.927,-1.607 V -0.36 c 0.368,-0.193 0.578,-0.536 0.745,-0.955 l 0.35,-0.862 c 0.114,-0.293 0.893,-0.955 0.499,-0.955 -0.525,0 -0.806,0.353 -0.989,0.821" /></g><g
           transform="translate(41.6754,10.1759)"
           id="g80"><path
             id="path82"
             style="fill:none;stroke:#b49f7a;stroke-width:0.56699997;stroke-linecap:butt;stroke-linejoin:miter;stroke-miterlimit:10;stroke-dasharray:none;stroke-opacity:1"
             d="M 0,0 C 0.989,0 1.682,0.502 1.682,1.23 1.682,1.968 0.989,2.47 0,2.47 H -3.855 V 0 Z M 0.885,-2.311 0.49,-1.349 c -0.21,0.52 -0.534,0.897 -1.112,0.897 h -3.224 v -2.512 h -0.516 v 5.886 h 4.397 c 1.288,0 2.172,-0.669 2.172,-1.667 0,-0.904 -0.762,-1.54 -1.927,-1.607 V -0.36 c 0.368,-0.193 0.578,-0.536 0.745,-0.955 l 0.35,-0.862 c 0.114,-0.293 0.893,-0.955 0.499,-0.955 -0.525,0 -0.806,0.353 -0.989,0.821 z" /></g><g
           transform="translate(52.8988,9.0495)"
           id="g84"><path
             id="path86"
             style="fill:#b49f7a;fill-opacity:1;fill-rule:nonzero;stroke:none"
             d="m 0,0 c 0.208,-0.011 0.416,-0.022 0.625,-0.032 -0.012,-0.031 -0.274,-0.747 0.112,-1.184 0.268,-0.304 0.688,-0.29 1.105,-0.276 0.332,0.011 0.743,0.025 1.097,0.319 0.565,0.471 0.515,1.268 0.508,1.37 V 4.049 H 3.964 V 0.164 C 3.973,0.022 4.021,-0.857 3.391,-1.443 2.911,-1.89 2.323,-1.9 1.842,-1.908 1.261,-1.917 0.507,-1.941 0.117,-1.395 -0.263,-0.864 -0.048,-0.147 0,0" /></g><g
           transform="translate(52.8988,9.0495)"
           id="g88"><path
             id="path90"
             style="fill:none;stroke:#b49f7a;stroke-width:0.56699997;stroke-linecap:butt;stroke-linejoin:miter;stroke-miterlimit:10;stroke-dasharray:none;stroke-opacity:1"
             d="m 0,0 c 0.208,-0.011 0.416,-0.022 0.625,-0.032 -0.012,-0.031 -0.274,-0.747 0.112,-1.184 0.268,-0.304 0.688,-0.29 1.105,-0.276 0.332,0.011 0.743,0.025 1.097,0.319 0.565,0.471 0.515,1.268 0.508,1.37 V 4.049 H 3.964 V 0.164 C 3.973,0.022 4.021,-0.857 3.391,-1.443 2.911,-1.89 2.323,-1.9 1.842,-1.908 1.261,-1.917 0.507,-1.941 0.117,-1.395 -0.263,-0.864 -0.048,-0.147 0,0 Z" /></g><g
           transform="translate(59.9492,9.774)"
           id="g92"><path
             id="path94"
             style="fill:#b49f7a;fill-opacity:1;fill-rule:nonzero;stroke:none"
             d="M 0,0 V 3.324 H 0.517 V 0 c 0,-1.498 1.068,-2.311 2.785,-2.311 1.717,0 2.777,0.813 2.777,2.311 V 3.324 H 6.596 V 0 c 0,-1.766 -1.27,-2.772 -3.294,-2.772 C 1.27,-2.772 0,-1.766 0,0" /></g><g
           transform="translate(59.9492,9.774)"
           id="g96"><path
             id="path98"
             style="fill:none;stroke:#b49f7a;stroke-width:0.56699997;stroke-linecap:butt;stroke-linejoin:miter;stroke-miterlimit:10;stroke-dasharray:none;stroke-opacity:1"
             d="M 0,0 V 3.324 H 0.517 V 0 c 0,-1.498 1.068,-2.311 2.785,-2.311 1.717,0 2.777,0.813 2.777,2.311 V 3.324 H 6.596 V 0 c 0,-1.766 -1.27,-2.772 -3.294,-2.772 C 1.27,-2.772 0,-1.766 0,0 Z" /></g><g
           transform="translate(69.7206,13.0982)"
           id="g100"><path
             id="path102"
             style="fill:#b49f7a;fill-opacity:1;fill-rule:nonzero;stroke:none"
             d="M 0,0 H 0.517 V -5.443 H 4.712 V -5.886 L 0,-5.886 Z" /></g><g
           transform="translate(69.7206,13.0982)"
           id="g104"><path
             id="path106"
             style="fill:none;stroke:#b49f7a;stroke-width:0.56699997;stroke-linecap:butt;stroke-linejoin:miter;stroke-miterlimit:10;stroke-dasharray:none;stroke-opacity:1"
             d="M 0,0 H 0.517 V -5.443 H 4.712 V -5.886 L 0,-5.886 Z" /></g><path
           id="path108"
           style="fill:#b49f7a;fill-opacity:1;fill-rule:nonzero;stroke:#b49f7a;stroke-width:0.56699997;stroke-linecap:butt;stroke-linejoin:miter;stroke-miterlimit:10;stroke-dasharray:none;stroke-opacity:1"
           d="m 77.301,13.098 h 0.517 V 7.212 h -0.517 z" /><g
           transform="translate(81.0779,13.0982)"
           id="g110"><path
             id="path112"
             style="fill:#b49f7a;fill-opacity:1;fill-rule:nonzero;stroke:none"
             d="M 0,0 H 5.921 V -0.452 H 0.508 V -2.613 H 5.571 V -3.056 H 0.508 v -2.387 h 5.501 v -0.443 l -6.009,0 z" /></g><g
           transform="translate(81.0779,13.0982)"
           id="g114"><path
             id="path116"
             style="fill:none;stroke:#b49f7a;stroke-width:0.56699997;stroke-linecap:butt;stroke-linejoin:miter;stroke-miterlimit:10;stroke-dasharray:none;stroke-opacity:1"
             d="M 0,0 H 5.921 V -0.452 H 0.508 V -2.613 H 5.571 V -3.056 H 0.508 v -2.387 h 5.501 v -0.443 l -6.009,0 z" /></g><g
           transform="translate(90.0864,13.0982)"
           id="g118"><path
             id="path120"
             style="fill:#b49f7a;fill-opacity:1;fill-rule:nonzero;stroke:none"
             d="m 0,0 h 0.701 l 5.22,-5.392 H 5.93 V 0 H 6.447 V -5.886 H 5.746 L 0.525,-0.503 H 0.517 V -5.886 H 0 Z" /></g><g
           transform="translate(90.0864,13.0982)"
           id="g122"><path
             id="path124"
             style="fill:none;stroke:#b49f7a;stroke-width:0.56699997;stroke-linecap:butt;stroke-linejoin:miter;stroke-miterlimit:10;stroke-dasharray:none;stroke-opacity:1"
             d="m 0,0 h 0.701 l 5.22,-5.392 H 5.93 V 0 H 6.447 V -5.886 H 5.746 L 0.525,-0.503 H 0.517 V -5.886 H 0 Z" /></g><g
           transform="translate(105.2738,13.0982)"
           id="g126"><path
             id="path128"
             style="fill:#b49f7a;fill-opacity:1;fill-rule:nonzero;stroke:none"
             d="M 0,0 H 0.517 V -2.588 H 5.921 V 0 H 6.438 V -5.886 H 5.921 v 2.855 H 0.517 V -5.886 H 0 Z" /></g><g
           transform="translate(105.2738,13.0982)"
           id="g130"><path
             id="path132"
             style="fill:none;stroke:#b49f7a;stroke-width:0.56699997;stroke-linecap:butt;stroke-linejoin:miter;stroke-miterlimit:10;stroke-dasharray:none;stroke-opacity:1"
             d="M 0,0 H 0.517 V -2.588 H 5.921 V 0 H 6.438 V -5.886 H 5.921 v 2.855 H 0.517 V -5.886 H 0 Z" /></g><g
           transform="translate(114.9747,13.0982)"
           id="g134"><path
             id="path136"
             style="fill:#b49f7a;fill-opacity:1;fill-rule:nonzero;stroke:none"
             d="M 0,0 H 5.921 V -0.452 H 0.508 V -2.613 H 5.571 V -3.056 H 0.508 v -2.387 h 5.501 v -0.443 l -6.009,0 z" /></g><g
           transform="translate(114.9747,13.0982)"
           id="g138"><path
             id="path140"
             style="fill:none;stroke:#b49f7a;stroke-width:0.56699997;stroke-linecap:butt;stroke-linejoin:miter;stroke-miterlimit:10;stroke-dasharray:none;stroke-opacity:1"
             d="M 0,0 H 5.921 V -0.452 H 0.508 V -2.613 H 5.571 V -3.056 H 0.508 v -2.387 h 5.501 v -0.443 l -6.009,0 z" /></g><g
           transform="translate(128.3456,10.1759)"
           id="g142"><path
             id="path144"
             style="fill:#b49f7a;fill-opacity:1;fill-rule:nonzero;stroke:none"
             d="M 0,0 C 0.99,0 1.682,0.502 1.682,1.23 1.682,1.968 0.99,2.47 0,2.47 H -3.854 V 0 Z m 0.885,-2.311 -0.394,0.962 c -0.211,0.52 -0.535,0.897 -1.113,0.897 h -3.223 v -2.512 h -0.517 v 5.886 h 4.397 c 1.288,0 2.173,-0.669 2.173,-1.667 0,-0.904 -0.762,-1.54 -1.928,-1.607 V -0.36 c 0.368,-0.193 0.579,-0.536 0.745,-0.955 l 0.351,-0.862 c 0.113,-0.293 0.893,-0.955 0.499,-0.955 -0.526,0 -0.806,0.353 -0.99,0.821" /></g><g
           transform="translate(128.3456,10.1759)"
           id="g146"><path
             id="path148"
             style="fill:none;stroke:#b49f7a;stroke-width:0.56699997;stroke-linecap:butt;stroke-linejoin:miter;stroke-miterlimit:10;stroke-dasharray:none;stroke-opacity:1"
             d="M 0,0 C 0.99,0 1.682,0.502 1.682,1.23 1.682,1.968 0.99,2.47 0,2.47 H -3.854 V 0 Z m 0.885,-2.311 -0.394,0.962 c -0.211,0.52 -0.535,0.897 -1.113,0.897 h -3.223 v -2.512 h -0.517 v 5.886 h 4.397 c 1.288,0 2.173,-0.669 2.173,-1.667 0,-0.904 -0.762,-1.54 -1.928,-1.607 V -0.36 c 0.368,-0.193 0.579,-0.536 0.745,-0.955 l 0.351,-0.862 c 0.113,-0.293 0.893,-0.955 0.499,-0.955 -0.526,0 -0.806,0.353 -0.99,0.821 z" /></g><g
           transform="translate(133.9213,13.0982)"
           id="g150"><path
             id="path152"
             style="fill:#b49f7a;fill-opacity:1;fill-rule:nonzero;stroke:none"
             d="M 0,0 H 0.797 L 4.09,-5.409 H 4.099 L 7.393,0 H 8.19 V -5.886 H 7.673 V -0.52 H 7.655 L 4.388,-5.886 H 3.793 L 0.534,-0.52 H 0.517 V -5.886 H 0 Z" /></g><g
           transform="translate(133.9213,13.0982)"
           id="g154"><path
             id="path156"
             style="fill:none;stroke:#b49f7a;stroke-width:0.56699997;stroke-linecap:butt;stroke-linejoin:miter;stroke-miterlimit:10;stroke-dasharray:none;stroke-opacity:1"
             d="M 0,0 H 0.797 L 4.09,-5.409 H 4.099 L 7.393,0 H 8.19 V -5.886 H 7.673 V -0.52 H 7.655 L 4.388,-5.886 H 3.793 L 0.534,-0.52 H 0.517 V -5.886 H 0 Z" /></g><g
           transform="translate(150.5607,9.1379)"
           id="g158"><path
             id="path160"
             style="fill:#b49f7a;fill-opacity:1;fill-rule:nonzero;stroke:none"
             d="M 0,0 -1.962,3.533 H -1.98 L -3.942,0 Z m -2.269,3.96 h 0.604 L 1.629,-1.926 H 1.086 l -0.85,1.481 H -4.187 L -5.028,-1.926 H -5.58 Z" /></g><g
           transform="translate(150.5607,9.1379)"
           id="g162"><path
             id="path164"
             style="fill:none;stroke:#b49f7a;stroke-width:0.56699997;stroke-linecap:butt;stroke-linejoin:miter;stroke-miterlimit:10;stroke-dasharray:none;stroke-opacity:1"
             d="M 0,0 -1.962,3.533 H -1.98 L -3.942,0 Z m -2.269,3.96 h 0.604 L 1.629,-1.926 H 1.086 l -0.85,1.481 H -4.187 L -5.028,-1.926 H -5.58 Z" /></g><g
           transform="translate(155.0588,13.0982)"
           id="g166"><path
             id="path168"
             style="fill:#b49f7a;fill-opacity:1;fill-rule:nonzero;stroke:none"
             d="m 0,0 h 0.701 l 5.22,-5.392 H 5.93 V 0 H 6.447 V -5.886 H 5.746 L 0.525,-0.503 H 0.517 V -5.886 H 0 Z" /></g><g
           transform="translate(155.0588,13.0982)"
           id="g170"><path
             id="path172"
             style="fill:none;stroke:#b49f7a;stroke-width:0.56699997;stroke-linecap:butt;stroke-linejoin:miter;stroke-miterlimit:10;stroke-dasharray:none;stroke-opacity:1"
             d="m 0,0 h 0.701 l 5.22,-5.392 H 5.93 V 0 H 6.447 V -5.886 H 5.746 L 0.525,-0.503 H 0.517 V -5.886 H 0 Z" /></g></g></g></g></svg>